<?xml version="1.0" standalone="no"?>
<!DOCTYPE svg PUBLIC "-//W3C//DTD SVG 20010904//EN"
 "http://www.w3.org/TR/2001/REC-SVG-20010904/DTD/svg10.dtd">
<svg version="1.0" xmlns="http://www.w3.org/2000/svg"
 width="125.000000pt" height="130.000000pt" viewBox="0 0 125.000000 130.000000"
 preserveAspectRatio="xMidYMid meet">
<metadata>
Created by potrace 1.10, written by Peter Selinger 2001-2011
</metadata>
<g transform="translate(0.000000,130.000000) scale(0.050000,-0.050000)"
fill="#000000" stroke="none">
<path d="M1860 2571 c-49 -15 -115 -36 -146 -49 -31 -12 -92 -22 -136 -22
-105 0 -278 -124 -316 -226 -28 -75 -210 -178 -447 -251 -160 -49 -260 -99
-359 -178 -53 -42 -90 -57 -125 -50 -56 11 -107 -65 -83 -126 14 -36 146 -30
170 8 61 94 687 255 631 162 -3 -6 1 -22 9 -36 9 -15 0 -57 -21 -99 -21 -40
-37 -114 -37 -167 0 -128 -33 -197 -95 -197 -26 0 -64 -9 -83 -19 -20 -11
-135 -36 -255 -57 -121 -21 -241 -52 -268 -69 -27 -17 -89 -37 -139 -45 -163
-24 -166 -26 -155 -110 32 -232 262 -483 266 -290 3 114 30 170 81 170 26 0
48 8 48 19 0 10 30 14 66 8 113 -19 590 87 701 155 96 58 98 59 153 24 231
-149 258 -172 296 -256 10 -22 38 -82 62 -133 43 -93 88 -359 69 -408 -6 -15
-4 -38 5 -52 9 -14 19 -53 22 -86 18 -170 28 -182 158 -175 315 14 397 187
118 250 -29 6 -68 61 -57 80 6 9 0 29 -13 44 -15 19 -25 122 -28 284 -5 313
-10 325 -250 549 l-180 167 16 160 c17 154 74 359 133 477 16 31 29 73 29 93
0 21 10 44 22 51 12 7 17 31 11 52 -14 54 285 206 376 191 111 -19 171 -51
171 -92 0 -49 91 -122 152 -122 111 0 75 181 -45 224 -37 13 -67 33 -67 45 0
106 -252 161 -460 102z"/>
</g>
</svg>
